<?xml version="1.0" encoding="UTF-8"?><svg xmlns="http://www.w3.org/2000/svg" viewBox="0 0 241.47 258.92"><defs><style>.d{fill:#fff;}</style></defs>
<rect width="100%" height="100%" fill="white"/>
<g id="a"/><g id="b"><g id="c"><g><path class="d" d="M33.3,158.23l.11,.09c.29,.21,.53,.38,.8,.53,14.94,8.53,28.71,16.46,42.09,24.24,5.3,3.07,10.63,6.16,15.95,9.28,1.27,.74,2.26,.97,3.28,.78,.67-.12,1.4-.42,2.23-.92,9.63-5.65,22.38-13.09,35.72-20.58,.68-.39,1.22-.77,1.68-1.19,.8-.73,1.29-1.53,1.5-2.46,.17-.69,.24-1.44,.2-2.19-.18-4.52-.15-8.9-.11-13.54l.04-6.37-21.92,12.64c-1.42,.82-2.81,1.62-4.32,2.51-4.76,2.76-9.23,5.35-13.87,7.86-.29,.16-.66,.27-1.1,.32-.83,.09-2.03-.03-2.86-.5-5.41-3.08-10.84-6.18-16.25-9.29-6.71-3.86-13.87-8.04-21.9-12.78-1.18-.68-2.21-2.58-2.21-4.05-.11-30.53-.1-61.55,0-92.19,0-1.39,1.11-3.29,2.32-4,13.66-8.07,26.04-15.22,37.85-21.84,.8-.45,1.83-.51,2.39-.5,.56,.01,1.61,.1,2.52,.59,.44,.23,.88,.48,1.33,.72l.9,.5c1.69,.91,3.37,1.83,5.03,2.78,.91,.52,1.8,1.05,2.7,1.58l.71,.42c.87,.52,1.73,1.04,2.6,1.56l.19,.13c1.06,.81,1.64,2.1,1.56,3.44-.08,1.34-.83,2.54-1.98,3.21l-35.16,20.51c-1.39,.81-2.26,2.32-2.26,3.93v21.06l45.05-25.95,1.95-1.19,1.66-.96c2.71-1.6,8-4.6,11.95-6.83,2.19-1.24,4.91-1.23,7.11,.02l27.69,15.81v-17.54c0-3.76-2.03-7.27-5.29-9.15l-28.5-16.44c-.32-.21-.5-.32-.69-.44-11.36-6.42-23.23-13.27-36.27-20.96-.39-.22-.79-.41-1.22-.57-.43-.16-.76-.24-1.07-.28-.48-.04-.76-.04-1.03,0l-.19,.02c-.11,.02-.42,.11-.8,.25l-.19,.06s-.08,.04-.12,.06c-.22,.09-.44,.2-.66,.32l-.24,.12c-10.28,6.01-20.83,12.12-31.9,18.51-8.3,4.79-16.88,9.72-25.85,14.84-2,1.15-2.7,2.32-2.67,4.45l.04,30.47c.02,27.04,0,54.99-.04,85.44,0,.88,.13,1.61,.39,2.21,.24,.54,.61,1,1.16,1.44Z"/><path class="d" d="M173.19,233.54l28.49-16.46c.34-.17,.53-.27,.73-.38,11.23-6.62,23.1-13.46,36.29-20.92,.39-.22,.75-.47,1.11-.77,.35-.29,.58-.54,.77-.79,.28-.4,.42-.65,.51-.89l.08-.17c.04-.12,.11-.42,.19-.83l.04-.19s0-.1,.01-.15c.03-.21,.04-.46,.05-.71l.02-.28c-.06-11.89-.08-24.09-.07-36.87,0-9.58,.03-19.47,.08-29.81,0-2.3-.66-3.49-2.52-4.54l-26.4-15.21c-23.42-13.51-47.62-27.5-73.96-42.77-.74-.43-1.42-.68-2.06-.76h-.05c-.6-.07-1.17,.02-1.83,.28l-.08,.03c-.3,.12-.6,.26-.91,.44-14.76,8.61-28.51,16.56-42.04,24.32-5.31,3.06-10.65,6.12-16.01,9.17-1.27,.73-1.97,1.47-2.32,2.45-.23,.64-.33,1.42-.32,2.39,.08,11.2,.15,26-.04,41.23,0,.79,.06,1.45,.19,2.05,.23,1.05,.68,1.88,1.38,2.53,.51,.49,1.13,.92,1.79,1.27,4.03,2.11,7.8,4.33,11.79,6.68l5.49,3.21,.02-25.85c0-1.44,0-2.89-.01-4.45-.01-5.46-.02-10.62,.13-15.94,0-.34,.09-.71,.27-1.11,.34-.76,1.04-1.74,1.86-2.22,5.37-3.15,10.77-6.3,16.18-9.42,6.66-3.86,13.86-7.97,22.01-12.57,1.18-.67,3.34-.63,4.61,.11,26.6,15.24,53.46,30.76,79.83,46.11,1.2,.7,2.3,2.61,2.3,4,.16,15.84,.15,30.13-.01,43.7-.01,.93-.48,1.85-.76,2.32-.29,.48-.89,1.34-1.77,1.89-.41,.26-.84,.52-1.27,.77l-.9,.55c-1.63,1-3.27,2-4.92,2.97-.91,.53-1.83,1.05-2.75,1.56l-.68,.38c-.8,.45-1.61,.89-2.41,1.33l-.45,.24c-1.23,.51-2.64,.37-3.76-.37-1.11-.74-1.78-1.98-1.79-3.32l-.17-40.71c0-1.61-.88-3.11-2.27-3.92l-18.24-10.54-.06,51.98,.06,2.23v1.98c.02,3.43-.04,10.1-.07,13.77-.02,2.52-1.39,4.87-3.57,6.14l-27.54,16.07,15.19,8.77c3.26,1.88,7.3,1.88,10.56,0Z"/><path class="d" d="M92.05,242.87c23.41-13.52,47.64-27.47,74.04-42.63,.56-.32,1.02-.66,1.37-1.03v-.09l.41-.41c.31-.46,.5-.98,.6-1.63l.02-.11c.04-.31,.07-.63,.07-.98-.07-17.3-.07-33.19-.02-48.57,0-6.13,.03-12.28,.08-18.45,0-1.47-.29-2.44-.96-3.23-.44-.52-1.06-1-1.91-1.47-9.77-5.56-22.64-12.92-35.67-20.67-.68-.39-1.29-.67-1.87-.86-1.03-.33-1.97-.35-2.88-.07-.68,.2-1.36,.51-1.99,.92-3.84,2.43-7.65,4.58-11.68,6.87l-5.52,3.14,21.9,12.68c1.4,.81,2.8,1.62,4.33,2.49,4.51,2.6,9.17,5.27,13.74,8.09,.29,.18,.56,.44,.82,.79,.49,.68,.99,1.78,1,2.73,.04,6.23,.06,12.48,.06,18.72,.01,7.71-.03,16-.13,25.35,0,1.36-1.13,3.21-2.41,3.94-26.45,15.37-53.33,30.86-79.87,46.04-1.2,.69-3.41,.68-4.62,0-13.83-7.82-26.21-14.97-37.83-21.88-.79-.47-1.36-1.35-1.63-1.83-.27-.49-.72-1.45-.75-2.48-.02-.5-.03-1.02-.04-1.54l-.02-1c-.05-1.91-.1-3.83-.11-5.75,0-1.04,0-2.08,.02-3.12v-.83c.02-1.02,.04-2.04,.07-3.06l.02-.2c.17-1.33,1-2.47,2.2-3.07,1.2-.6,2.61-.55,3.78,.11l35.33,20.22c1.4,.8,3.13,.8,4.53,0l18.25-10.52-44.98-26.07-2.01-1.1-1.67-.96c-2.97-1.68-8.72-5.07-11.89-6.95-2.17-1.28-3.52-3.64-3.53-6.17l-.13-31.88-15.2,8.76c-3.26,1.88-5.29,5.38-5.29,9.15l-.02,33.11c-.01,.2-.03,.39-.02,.61,.12,13.16,.1,26.86-.05,41.9,0,.45,.03,.89,.11,1.34,.08,.45,.18,.77,.3,1.06,.2,.43,.35,.68,.51,.89l.07,.09c.18,.21,.39,.4,.66,.63l.14,.13s.07,.05,.1,.07c.2,.15,.41,.29,.62,.42l.22,.15c10.34,5.91,20.91,11.99,31.97,18.4,8.29,4.8,16.85,9.77,25.77,14.98,1.99,1.15,3.35,1.18,5.19,.09l26.38-15.25Z"/></g></g></g></svg>