<?xml version="1.0" standalone="no"?>
<!DOCTYPE svg PUBLIC "-//W3C//DTD SVG 20010904//EN"
 "http://www.w3.org/TR/2001/REC-SVG-20010904/DTD/svg10.dtd">
<svg version="1.0" xmlns="http://www.w3.org/2000/svg"
 width="2351.000000pt" height="2351.000000pt" viewBox="0 0 2351.000000 2351.000000"
 preserveAspectRatio="xMidYMid meet">

<g transform="translate(0.000000,2351.000000) scale(0.100000,-0.100000)"
fill="#000000" stroke="none">
<path d="M0 11755 l0 -11755 11755 0 11755 0 0 11755 0 11755 -11755 0 -11755
0 0 -11755z m10799 8653 c36 -19 154 -86 261 -150 163 -97 490 -287 910 -530
163 -95 716 -412 920 -528 179 -102 476 -273 815 -470 55 -32 228 -132 385
-222 157 -91 377 -218 490 -283 113 -65 250 -143 305 -174 74 -42 121 -78 185
-141 91 -91 131 -155 171 -275 24 -70 24 -71 27 -683 1 -338 -1 -612 -5 -609
-136 82 -1763 1006 -1798 1020 -40 17 -72 21 -160 22 -99 0 -116 -3 -167 -27
-75 -35 -503 -276 -783 -441 -121 -71 -294 -172 -385 -225 -91 -52 -232 -134
-315 -182 -82 -48 -213 -123 -290 -167 -77 -45 -268 -155 -425 -245 -273 -158
-583 -336 -925 -533 -88 -51 -250 -144 -360 -207 -110 -64 -239 -138 -287
-166 l-88 -50 0 687 c0 763 -2 740 66 819 19 23 60 56 92 75 79 47 320 188
482 282 74 43 155 90 180 105 25 15 77 45 115 67 88 51 332 194 445 260 47 27
146 85 220 128 74 43 155 90 180 105 25 15 77 45 115 67 503 290 525 306 560
397 13 34 16 62 12 106 -8 87 -43 141 -125 195 -190 122 -783 454 -862 482
-27 9 -75 15 -120 15 -100 -1 -58 20 -915 -470 -355 -203 -538 -309 -835 -482
-36 -21 -110 -64 -165 -97 -55 -32 -212 -124 -348 -203 -137 -80 -266 -160
-287 -178 -23 -19 -53 -61 -72 -100 l-33 -67 0 -2950 0 -2950 22 -48 c52 -111
22 -91 683 -477 135 -79 308 -180 385 -225 221 -130 1060 -611 1317 -756 89
-50 173 -91 195 -94 79 -11 88 -12 126 -3 37 8 375 192 702 383 155 90 713
412 1440 831 231 134 421 242 422 241 1 -1 3 -311 4 -687 2 -685 2 -685 -20
-735 -49 -111 -68 -126 -466 -350 -274 -155 -427 -242 -910 -520 -271 -157
-270 -156 -754 -439 -195 -113 -374 -213 -398 -221 -98 -33 -160 -16 -347 94
-72 43 -255 150 -406 238 -522 303 -725 421 -825 478 -55 32 -143 83 -195 113
-156 91 -758 438 -1060 612 -107 61 -388 222 -625 357 -236 135 -454 263 -482
285 -29 21 -63 57 -75 81 l-23 42 0 3750 0 3750 27 47 c37 63 77 89 413 281
260 148 585 334 1250 717 194 112 925 535 1245 720 63 37 241 140 395 230 154
90 323 188 375 218 150 88 194 104 269 98 47 -3 81 -13 130 -38z m2515 -3803
c47 -16 178 -90 831 -470 116 -67 415 -240 665 -385 250 -145 556 -322 680
-393 733 -424 979 -567 1405 -812 198 -114 412 -238 475 -275 63 -37 239 -138
390 -225 151 -87 417 -240 590 -340 173 -100 437 -252 585 -337 149 -86 326
-188 395 -228 69 -40 184 -105 256 -146 149 -85 206 -129 237 -188 l22 -41 0
-2210 0 -2210 -25 -49 c-31 -60 -80 -103 -190 -166 -754 -427 -1559 -891
-2030 -1168 -80 -47 -174 -102 -210 -122 -36 -20 -126 -71 -200 -114 -74 -43
-225 -130 -335 -194 -110 -63 -236 -136 -280 -162 -44 -26 -186 -108 -315
-182 -129 -75 -280 -161 -335 -193 -425 -246 -447 -257 -553 -281 -53 -12
-102 -15 -171 -12 -165 9 -184 18 -786 366 -77 45 -213 123 -302 174 -89 51
-162 95 -162 98 0 3 77 50 172 104 95 55 237 138 317 184 80 47 170 100 200
117 82 47 252 147 685 399 420 244 471 282 524 390 54 110 51 -22 51 2369 0
1401 4 2217 10 2217 8 0 133 -71 830 -475 113 -65 234 -135 269 -154 111 -63
161 -126 181 -231 6 -30 10 -451 10 -1053 1 -1302 6 -1588 26 -1635 47 -114
174 -182 285 -152 41 11 284 143 495 268 411 244 460 280 510 381 l28 56 9
480 c4 264 6 901 3 1416 -6 1036 -3 987 -72 1082 -39 54 -37 52 -334 224 -124
72 -387 225 -585 340 -198 115 -511 297 -695 403 -184 107 -400 232 -480 278
-80 46 -248 144 -375 217 -126 73 -286 165 -355 205 -69 40 -215 124 -325 188
-110 63 -256 147 -325 187 -69 40 -249 143 -400 230 -151 87 -408 234 -570
328 -685 393 -674 387 -740 399 -100 19 -142 5 -377 -128 -846 -477 -2206
-1268 -2255 -1312 -21 -19 -50 -59 -65 -90 l-28 -57 -3 -1460 c-2 -803 -5
-1461 -6 -1463 -3 -3 -46 22 -321 183 -191 113 -601 346 -728 415 -53 29 -114
68 -135 86 -48 41 -88 114 -99 184 -11 65 -9 2769 2 2821 11 56 51 115 102
152 27 18 136 84 243 144 185 105 586 335 1329 763 523 301 1268 732 1811
1048 184 108 355 204 380 213 56 22 106 23 164 4z m-589 -2600 c69 -18 83 -26
385 -205 289 -171 459 -271 695 -407 373 -216 526 -304 935 -537 228 -131 432
-254 453 -274 21 -20 48 -55 60 -77 l22 -40 0 -2195 c-1 -1673 -4 -2205 -13
-2236 -22 -76 -86 -127 -347 -275 -132 -75 -296 -169 -365 -209 -69 -40 -307
-177 -530 -305 -223 -128 -533 -307 -690 -397 -157 -90 -528 -304 -825 -475
-534 -307 -764 -440 -1085 -625 -91 -53 -266 -154 -390 -225 -229 -132 -854
-493 -1035 -598 -55 -32 -215 -124 -355 -205 -140 -81 -311 -180 -380 -220
-539 -313 -549 -317 -641 -300 -64 12 -71 16 -514 275 -410 239 -913 531
-1335 775 -146 84 -301 174 -345 200 -44 26 -388 224 -765 440 -880 504 -836
478 -885 526 -83 79 -75 -165 -75 2590 0 1446 4 2472 9 2501 28 145 82 245
191 353 80 79 105 96 370 248 157 89 382 218 500 286 118 69 216 124 216 123
1 -1 4 -468 7 -1037 5 -729 10 -1047 18 -1075 26 -92 91 -190 159 -240 49 -36
550 -332 821 -485 90 -51 319 -183 509 -293 190 -110 435 -251 545 -315 110
-64 279 -161 375 -217 96 -56 252 -146 345 -200 94 -54 222 -129 285 -165 63
-37 219 -127 345 -200 127 -73 262 -151 300 -174 39 -23 125 -73 192 -111 68
-39 123 -73 123 -76 0 -6 -72 -48 -625 -367 -137 -79 -312 -180 -389 -225 -76
-44 -155 -86 -175 -93 -59 -21 -149 -17 -206 10 -27 12 -363 202 -745 421
-1320 756 -1525 872 -1564 885 -81 26 -183 -6 -248 -78 -64 -70 -63 -64 -62
-622 0 -566 0 -564 73 -669 32 -48 56 -66 187 -144 577 -346 2170 -1263 2281
-1314 56 -26 170 -35 223 -18 22 7 574 320 1265 717 110 63 349 200 530 305
182 104 422 243 535 308 353 204 456 263 593 341 175 101 1316 761 1782 1031
218 127 387 232 412 255 23 23 54 68 70 102 l28 61 0 1430 0 1430 -23 50 c-13
28 -35 63 -50 78 -28 30 -326 211 -722 439 -236 136 -1160 670 -1385 801 -66
38 -191 110 -277 160 -87 50 -158 93 -158 96 0 4 112 69 248 145 318 180 627
360 769 448 112 70 200 106 258 107 17 1 57 -6 90 -14z"/>
</g>
</svg>
