<?xml version="1.0" encoding="UTF-8"?><svg xmlns="http://www.w3.org/2000/svg" viewBox="0 0 716.57 251.31"><defs><style>.d{fill:#fff;}</style></defs><g id="a"/><g id="b"><g id="c"><g><g><path class="d" d="M32.33,153.57l.11,.09c.28,.21,.51,.37,.77,.52,14.5,8.28,27.86,15.98,40.85,23.53,5.15,2.98,10.32,5.98,15.48,9.01,1.23,.71,2.19,.94,3.18,.76,.65-.12,1.35-.41,2.17-.89,9.34-5.49,21.72-12.71,34.67-19.98,.66-.38,1.18-.75,1.63-1.15,.77-.71,1.25-1.49,1.45-2.39,.17-.67,.23-1.39,.19-2.12-.18-4.39-.15-8.64-.11-13.14l.04-6.18-21.28,12.27c-1.38,.79-2.73,1.57-4.19,2.43-4.62,2.68-8.96,5.2-13.46,7.63-.29,.16-.64,.26-1.06,.31-.81,.09-1.97-.03-2.78-.49-5.25-2.99-10.52-5.99-15.77-9.02-6.51-3.74-13.47-7.8-21.25-12.4-1.14-.66-2.15-2.5-2.15-3.93-.1-29.63-.1-59.74,0-89.48,0-1.34,1.07-3.19,2.25-3.88,13.25-7.83,25.27-14.77,36.73-21.2,.78-.44,1.77-.49,2.32-.49,.54,.01,1.56,.1,2.44,.57,.43,.22,.86,.46,1.29,.7l.88,.48c1.64,.88,3.27,1.77,4.88,2.7,.88,.5,1.75,1.02,2.62,1.53l.69,.41c.85,.5,1.68,1.01,2.52,1.52l.19,.12c1.03,.79,1.59,2.04,1.51,3.34-.08,1.3-.8,2.46-1.93,3.12l-34.13,19.91c-1.35,.79-2.19,2.25-2.19,3.81v20.44l43.73-25.19,1.89-1.15,1.61-.93c2.63-1.55,7.76-4.46,11.6-6.63,2.13-1.2,4.77-1.19,6.9,.02l26.88,15.34v-17.03c0-3.65-1.97-7.05-5.13-8.88l-27.66-15.96c-.31-.2-.48-.32-.67-.43-11.03-6.23-22.54-12.88-35.2-20.34-.38-.22-.76-.4-1.18-.56-.42-.15-.74-.23-1.04-.27-.46-.04-.74-.04-1,0l-.18,.02c-.11,.02-.41,.11-.78,.25l-.18,.06s-.07,.04-.12,.05c-.21,.09-.43,.2-.64,.31l-.24,.12c-9.98,5.83-20.22,11.77-30.96,17.97-8.06,4.65-16.38,9.43-25.09,14.4-1.94,1.12-2.62,2.25-2.59,4.32l.04,29.58c.02,26.24,0,53.37-.04,82.92,0,.86,.12,1.56,.38,2.14,.23,.53,.59,.97,1.13,1.4Z"/><path class="d" d="M168.09,226.67l27.65-15.97c.33-.17,.51-.26,.71-.37,10.9-6.43,22.42-13.07,35.22-20.3,.37-.21,.73-.46,1.08-.75,.34-.29,.57-.52,.75-.77,.27-.39,.4-.63,.5-.86l.08-.17c.04-.11,.11-.41,.18-.81l.04-.18s0-.09,.01-.15c.03-.21,.04-.45,.05-.69l.02-.27c-.06-11.54-.08-23.38-.07-35.79,0-9.3,.03-18.9,.08-28.93,0-2.24-.64-3.39-2.45-4.4l-25.63-14.76c-22.73-13.11-46.22-26.69-71.79-41.51-.72-.42-1.38-.66-2-.74h-.05c-.58-.07-1.14,.02-1.77,.27l-.08,.03c-.29,.12-.58,.25-.88,.43-14.32,8.35-27.67,16.07-40.8,23.61-5.15,2.97-10.34,5.94-15.54,8.9-1.24,.71-1.91,1.42-2.25,2.38-.22,.62-.32,1.38-.31,2.32,.08,10.87,.14,25.23-.04,40.02,0,.77,.06,1.41,.18,1.99,.22,1.02,.66,1.83,1.34,2.46,.5,.48,1.09,.9,1.74,1.23,3.91,2.05,7.57,4.2,11.44,6.48l5.32,3.12,.02-25.09c0-1.4,0-2.8-.01-4.32-.01-5.3-.02-10.3,.12-15.47,0-.33,.09-.69,.27-1.08,.33-.74,1.01-1.69,1.81-2.16,5.22-3.06,10.46-6.11,15.7-9.15,6.46-3.75,13.45-7.74,21.37-12.2,1.15-.65,3.24-.61,4.48,.11,25.82,14.79,51.89,29.85,77.48,44.76,1.16,.68,2.23,2.53,2.24,3.89,.15,15.37,.15,29.24-.01,42.41-.01,.9-.47,1.8-.74,2.26-.28,.46-.86,1.3-1.72,1.83-.4,.25-.81,.5-1.23,.75l-.88,.53c-1.58,.98-3.17,1.94-4.78,2.88-.88,.52-1.77,1.02-2.67,1.52l-.66,.37c-.78,.44-1.56,.87-2.34,1.29l-.44,.23c-1.2,.5-2.56,.36-3.65-.36-1.08-.72-1.73-1.93-1.74-3.23l-.17-39.51c0-1.56-.85-3.02-2.21-3.8l-17.7-10.23-.06,50.45,.06,2.17v1.92c.02,3.32-.04,9.8-.07,13.36-.02,2.44-1.35,4.73-3.47,5.96l-26.73,15.6,14.75,8.51c3.16,1.83,7.09,1.83,10.25,0Z"/><path class="d" d="M89.35,235.73c22.73-13.12,46.23-26.66,71.86-41.38,.55-.31,.99-.64,1.33-1v-.09l.4-.4c.3-.44,.49-.95,.58-1.58l.02-.11c.04-.3,.07-.61,.07-.95-.06-16.79-.07-32.21-.02-47.14,0-5.95,.03-11.92,.08-17.91,0-1.42-.28-2.37-.93-3.14-.42-.5-1.03-.97-1.86-1.43-9.48-5.39-21.98-12.54-34.62-20.06-.66-.38-1.25-.65-1.82-.84-1-.32-1.92-.34-2.8-.07-.66,.19-1.32,.5-1.94,.89-3.73,2.36-7.43,4.45-11.34,6.66l-5.36,3.05,21.26,12.31c1.36,.79,2.72,1.57,4.2,2.42,4.38,2.52,8.9,5.12,13.34,7.85,.28,.17,.55,.42,.8,.76,.48,.66,.96,1.73,.97,2.65,.04,6.05,.06,12.11,.06,18.17,.01,7.48-.03,15.53-.13,24.61,0,1.32-1.1,3.11-2.34,3.82-25.67,14.92-51.76,29.95-77.52,44.68-1.17,.67-3.31,.66-4.48,0-13.43-7.59-25.44-14.53-36.71-21.24-.77-.46-1.32-1.31-1.58-1.77-.26-.47-.7-1.4-.73-2.4-.02-.49-.03-.99-.04-1.5l-.02-.97c-.05-1.86-.1-3.72-.1-5.58,0-1.01,0-2.02,.02-3.03v-.8c.02-.99,.04-1.98,.07-2.97l.02-.2c.17-1.29,.97-2.4,2.14-2.98,1.17-.58,2.53-.54,3.67,.11l34.29,19.63c1.36,.78,3.04,.77,4.4,0l17.71-10.21-43.65-25.3-1.95-1.07-1.62-.94c-2.88-1.63-8.47-4.93-11.54-6.74-2.1-1.24-3.41-3.53-3.43-5.98l-.13-30.94-14.75,8.51c-3.16,1.83-5.13,5.23-5.13,8.88l-.02,32.14c-.01,.19-.03,.38-.02,.59,.11,12.77,.1,26.07-.05,40.66,0,.43,.03,.86,.11,1.3,.08,.44,.17,.75,.29,1.03,.2,.42,.34,.66,.5,.86l.07,.09c.18,.2,.37,.39,.64,.62l.14,.13s.07,.05,.1,.07c.2,.15,.4,.28,.6,.41l.22,.15c10.03,5.73,20.29,11.64,31.03,17.85,8.05,4.66,16.35,9.48,25.01,14.54,1.93,1.12,3.25,1.15,5.04,.08l25.61-14.8Z"/></g><g><path class="d" d="M342.78,110.33h0c-6.6-4.35-14.67-6.56-23.99-6.56s-16.85,2.04-23.59,6.06c-6.76,4.03-12.09,9.81-15.86,17.17-3.74,7.31-5.64,16.05-5.64,25.95,0,9.37,1.93,17.74,5.74,24.87,3.82,7.17,9.26,12.83,16.15,16.83,6.88,3.99,14.96,6.01,24.02,6.01s17.03-2.28,24.27-6.78c6.04-3.75,10.87-8.85,14.35-15.16,.76-1.38,.86-3.02,.28-4.49-.59-1.48-1.8-2.61-3.31-3.09l-10.06-3.19c-2.32-.74-4.81,.2-6.06,2.26-1.89,3.14-4.34,5.66-7.29,7.49-3.62,2.25-7.99,3.39-13,3.39-7.67,0-13.35-2.41-17.37-7.36-2.66-3.28-4.47-7.59-5.38-12.8-.13-.73,.2-1.25,.41-1.5,.36-.43,.88-.67,1.43-.67h58.49c2.84,0,5.2-2.28,5.26-5.08,.22-9.36-1.13-17.69-4-24.75-3.26-8-8.26-14.26-14.87-18.62Zm-3.26,30.96c-.36,.44-.89,.69-1.45,.69h-39.49c-.58,0-1.13-.27-1.49-.73-.35-.45-.47-1-.33-1.53,1.01-3.94,2.58-7.26,4.67-9.88,4.02-5.03,9.91-7.48,18.02-7.48,7.27,0,12.5,2.2,15.99,6.72,2.06,2.66,3.56,6.27,4.46,10.73,.15,.71-.17,1.24-.38,1.49Z"/><path class="d" d="M383.37,74.26h10.02c2.91,0,5.27,2.36,5.27,5.27v113.42c0,2.91-2.36,5.27-5.27,5.27h-10.02c-2.91,0-5.27-2.36-5.27-5.27V79.53c0-2.91,2.36-5.27,5.27-5.27Z"/><path class="d" d="M493.54,106.24h-9.75c-2.18,0-4.17,1.37-4.93,3.42l-20.87,55.59c-.41,1.1-1.42,1.2-1.72,1.2-.24,0-1.3-.07-1.74-1.17l-21.9-55.69c-.8-2.03-2.72-3.34-4.9-3.34h-10.16c-1.76,0-3.39,.87-4.37,2.33-.98,1.46-1.17,3.3-.51,4.92l33.33,82c.18,.43,.18,.9,.02,1.34l-12.36,33.66c-.59,1.61-.36,3.42,.62,4.83,.98,1.41,2.6,2.25,4.32,2.25h8.77c2.17,0,4.15-1.36,4.92-3.39l46.15-120.8c.62-1.62,.4-3.44-.58-4.87-.98-1.43-2.61-2.28-4.34-2.28Z"/><path class="d" d="M604.51,106.24h10.02c2.91,0,5.27,2.36,5.27,5.27v81.44c0,2.91-2.36,5.27-5.27,5.27h-10.02c-2.91,0-5.27-2.36-5.27-5.27V111.51c0-2.91,2.36-5.27,5.27-5.27Z"/><path class="d" d="M525.32,76.72h-10.27c-2.9,0-5.27,2.36-5.27,5.26l-.08,110.96c0,1.41,.55,2.73,1.54,3.73,.99,1,2.32,1.54,3.73,1.54h10.34c2.9,0,5.27-2.36,5.27-5.27V81.99c0-2.9-2.36-5.27-5.27-5.27Z"/><path class="d" d="M553.96,153.36c-.62-.68-.65-1.72-.06-2.43l29.92-36.06c1.32-1.59,1.59-3.74,.71-5.6-.88-1.87-2.7-3.03-4.77-3.03h-12.54c-1.59,0-3.08,.71-4.08,1.94l-25.42,31.18c-1.51,1.85-2.35,4.19-2.36,6.58l-.05,11.81c-.01,2.54,.9,5,2.57,6.92l27.59,31.74c1,1.15,2.45,1.81,3.97,1.81h13.59c2.12,0,3.97-1.2,4.82-3.14,.85-1.94,.5-4.11-.93-5.68l-32.96-36.03Z"/><path class="d" d="M716.18,190.96l-32.99-80.93c-.94-2.31-3.16-3.8-5.65-3.8h-10.52c-2.51,0-4.8,1.58-5.7,3.92l-30.91,80.91c-.62,1.62-.4,3.44,.58,4.87s2.6,2.28,4.34,2.28h9.75c2.18,0,4.16-1.37,4.93-3.42l20.87-55.59c.41-1.1,1.42-1.2,1.72-1.2h.01c.31,0,1.3,.09,1.72,1.17l21.9,55.69c.8,2.03,2.72,3.34,4.9,3.34h10.16c1.76,0,3.39-.87,4.37-2.33,.98-1.46,1.17-3.3,.51-4.93Z"/><path class="d" d="M604.51,76.72h10.02c2.91,0,5.27,2.36,5.27,5.27v9.53c0,2.91-2.36,5.27-5.27,5.27h-10.02c-2.91,0-5.27-2.36-5.27-5.27v-9.53c0-2.91,2.36-5.27,5.27-5.27Z"/></g></g></g></g></svg>